mtllib entryAreaLeftWall.mtl
o entryAreaLeftWall.obj
v -0.050847 -0.000000 -0.491852
v -0.124620 -0.000000 -0.463088
v 0.409170 -0.000000 -0.220459
v 0.721745 -0.000000 0.309144
v -0.050847 0.400000 -0.491852
v -0.124620 0.400000 -0.463088
v 0.409170 0.400000 -0.220459
v 0.721745 0.400000 0.309144
v -0.050847 -0.000000 0.508148
v -0.124620 -0.000000 0.479384
v 0.409170 -0.000000 0.779541
v 0.721745 -0.000000 1.251615
v -0.050847 0.400000 0.508148
v -0.124620 0.400000 0.479384
v 0.409170 0.400000 0.779541
v 0.721745 0.400000 1.251615
v -0.200000 -0.000000 -0.354510
v -0.171739 -0.000000 -0.418735
v 0.797125 -0.000000 0.417721
v 0.768863 -0.000000 0.353497
v -0.200000 0.400000 -0.354510
v -0.171739 0.400000 -0.418735
v 0.797125 0.400000 0.417721
v 0.768863 0.400000 0.353497
v -0.200000 -0.000000 0.370806
v -0.171739 -0.000000 0.435030
v 0.797125 -0.000000 1.143037
v 0.768863 -0.000000 1.207262
v -0.200000 0.400000 0.370806
v -0.171739 0.400000 0.435030
v 0.797125 0.400000 1.143037
v 0.768863 0.400000 1.207262
vn 0.070385 -0.485888 -0.871182
vn -0.475947 -0.453852 -0.753321
vn 0.628237 -0.458796 -0.628350
vn 0.697211 -0.450800 -0.557384
vn 0.070385 0.485888 -0.871182
vn -0.475947 0.453852 -0.753321
vn 0.628237 0.458796 -0.628350
vn 0.697211 0.450800 -0.557384
vn -0.390714 -0.448378 0.803928
vn -0.475947 -0.453852 0.753321
vn -0.612605 -0.456515 0.645221
vn -0.090958 -0.613023 0.784811
vn -0.390714 0.448378 0.803928
vn -0.475947 0.453852 0.753321
vn -0.612605 0.456515 0.645221
vn -0.090958 0.613023 0.784811
vn -0.871438 -0.454987 -0.183255
vn -0.727503 -0.454485 -0.513987
vn 0.871438 -0.454987 -0.183255
vn 0.727503 -0.454485 -0.513987
vn -0.871438 0.454987 -0.183255
vn -0.727503 0.454485 -0.513987
vn 0.871438 0.454987 -0.183255
vn 0.727503 0.454485 -0.513987
vn -0.871438 -0.454987 0.183255
vn -0.727503 -0.454485 0.513987
vn 0.871438 -0.454987 0.183254
vn 0.727503 -0.454485 0.513987
vn -0.871438 0.454987 0.183255
vn -0.727503 0.454485 0.513987
vn 0.871438 0.454987 0.183254
vn 0.727503 0.454485 0.513987
vt 0.000000 0.000000
vt 0.000000 0.000000
vt 0.000000 0.000000
vt 0.000000 0.000000
vt 0.000000 0.000000
vt 0.000000 0.000000
vt 0.000000 0.000000
vt 0.000000 0.000000
vt 0.000000 0.000000
vt 0.000000 0.000000
vt 0.000000 0.000000
vt 0.000000 0.000000
vt 0.000000 0.000000
vt 0.000000 0.000000
vt 0.000000 0.000000
vt 0.000000 0.000000
vt 0.000000 0.000000
vt 0.000000 0.000000
vt 0.000000 0.000000
vt 0.000000 0.000000
vt 0.000000 0.000000
vt 0.000000 0.000000
vt 0.000000 0.000000
vt 0.000000 0.000000
vt 0.000000 0.000000
vt 0.000000 0.000000
vt 0.000000 0.000000
vt 0.000000 0.000000
vt 0.000000 0.000000
vt 0.000000 0.000000
vt 0.000000 0.000000
vt 0.000000 0.000000
g Cube
usemtl Default
f 7/1/7 3/2/3 1/3/1 5/4/5 
f 11/5/11 15/6/15 13/7/13 9/8/9 
f 27/9/27 28/10/28 12/11/12 11/5/11 9/8/9 10/12/10 26/13/26 25/14/25 17/15/17 18/16/18 2/17/2 1/3/1 3/2/3 4/18/4 20/19/20 19/20/19 
f 31/21/31 27/9/27 19/20/19 23/22/23 
f 29/23/29 30/24/30 14/25/14 13/7/13 15/6/15 16/26/16 32/27/32 31/21/31 23/22/23 24/28/24 8/29/8 7/1/7 5/4/5 6/30/6 22/31/22 21/32/21 
f 25/14/25 29/23/29 21/32/21 17/15/17 
f 24/28/24 20/19/20 4/18/4 8/29/8 
f 18/16/18 22/31/22 6/30/6 2/17/2 
f 28/10/28 32/27/32 16/26/16 12/11/12 
f 30/24/30 26/13/26 10/12/10 14/25/14 
f 8/29/8 4/18/4 3/2/3 7/1/7 
f 2/17/2 6/30/6 5/4/5 1/3/1 
f 12/11/12 16/26/16 15/6/15 11/5/11 
f 14/25/14 10/12/10 9/8/9 13/7/13 
f 20/19/20 24/28/24 23/22/23 19/20/19 
f 22/31/22 18/16/18 17/15/17 21/32/21 
f 32/27/32 28/10/28 27/9/27 31/21/31 
f 26/13/26 30/24/30 29/23/29 25/14/25 
