mtllib flipper.mtl
o flipper.obj
v 1.677779 0.011493 -0.033005
v 1.690489 0.011493 -0.026737
v 1.700266 0.011493 -0.008464
v 1.695130 0.011493 -0.021673
v 1.677779 0.356458 -0.033005
v 1.690489 0.356458 -0.026737
v 1.700266 0.356458 -0.008464
v 1.695130 0.356458 -0.021673
v 1.677779 0.011493 0.033005
v 1.690489 0.011493 0.026737
v 1.700266 0.011493 0.008464
v 1.695130 0.011493 0.021673
v 1.677779 0.356458 0.033005
v 1.690489 0.356458 0.026737
v 1.700266 0.356458 0.008464
v 1.695130 0.356458 0.021673
v -0.027529 0.011493 -0.182242
v -0.064282 0.011493 -0.169767
v -0.100208 0.011493 -0.115646
v -0.084576 0.011493 -0.151171
v -0.027529 0.356458 -0.182242
v -0.064282 0.356458 -0.169767
v -0.100208 0.356458 -0.115646
v -0.084576 0.356458 -0.151171
v -0.027529 0.011493 0.182242
v -0.064282 0.011493 0.169767
v -0.100208 0.011493 0.115646
v -0.084576 0.011493 0.151171
v -0.027529 0.356458 0.182242
v -0.064282 0.356458 0.169767
v -0.100208 0.356458 0.115646
v -0.084576 0.356458 0.151171
vn 0.240081 -0.453422 -0.858353
vn 0.534853 -0.453422 -0.712980
vn 0.876015 -0.453422 -0.164337
vn 0.756894 -0.453421 -0.470660
vn 0.240081 0.453422 -0.858353
vn 0.534853 0.453422 -0.712980
vn 0.876015 0.453422 -0.164337
vn 0.756894 0.453421 -0.470660
vn 0.240081 -0.453422 0.858353
vn 0.534853 -0.453422 0.712980
vn 0.876015 -0.453422 0.164337
vn 0.756894 -0.453421 0.470660
vn 0.240081 0.453422 0.858353
vn 0.534853 0.453422 0.712980
vn 0.876015 0.453422 0.164337
vn 0.756894 0.453421 0.470660
vn -0.106577 -0.454987 -0.884098
vn -0.453623 -0.454987 -0.766298
vn -0.871440 -0.454987 -0.183247
vn -0.723834 -0.454987 -0.518702
vn -0.106577 0.454987 -0.884098
vn -0.453623 0.454987 -0.766298
vn -0.871440 0.454987 -0.183247
vn -0.723834 0.454987 -0.518702
vn -0.106577 -0.454987 0.884098
vn -0.453623 -0.454987 0.766298
vn -0.871440 -0.454987 0.183247
vn -0.723834 -0.454987 0.518702
vn -0.106577 0.454987 0.884098
vn -0.453623 0.454987 0.766298
vn -0.871440 0.454987 0.183247
vn -0.723834 0.454987 0.518702
vt 4.671859 0.586634
vt 4.671859 0.586634
vt 0.195554 0.978339
vt 0.195827 0.978354
vt 4.671859 0.413366
vt 4.671859 0.413366
vt 0.195792 0.021645
vt 0.195567 0.021631
vt 4.730885 0.477783
vt 4.717402 0.443113
vt 4.705221 0.429820
vt 0.099094 0.054376
vt 0.045821 0.103188
vt 0.004787 0.196436
vt 0.004780 0.803535
vt 0.045811 0.896782
vt 0.099081 0.945594
vt 4.705221 0.570180
vt 4.717402 0.556887
vt 4.730885 0.522217
vt 4.730885 0.477783
vt 4.730885 0.522217
vt 0.005031 0.196449
vt 0.046057 0.103202
vt 0.099325 0.054390
vt 4.705221 0.429820
vt 4.717402 0.443113
vt 4.717402 0.556887
vt 4.705221 0.570180
vt 0.099359 0.945610
vt 0.046086 0.896797
vt 0.005053 0.803549
g Cube
usemtl Default
f 5/1/5 1/2/1 17/3/17 21/4/21 
f 9/5/9 13/6/13 29/7/29 25/8/25 
f 11/9/11 12/10/12 10/11/10 9/5/9 25/8/25 26/12/26 28/13/28 27/14/27 19/15/19 20/16/20 18/17/18 17/3/17 1/2/1 2/18/2 4/19/4 3/20/3 
f 15/21/15 11/9/11 3/20/3 7/22/7 
f 31/23/31 32/24/32 30/25/30 29/7/29 13/6/13 14/26/14 16/27/16 15/21/15 7/22/7 8/28/8 6/29/6 5/1/5 21/4/21 22/30/22 24/31/24 23/32/23 
f 27/14/27 31/23/31 23/32/23 19/15/19 
f 8/28/8 4/19/4 2/18/2 6/29/6 
f 12/10/12 16/27/16 14/26/14 10/11/10 
f 6/29/6 2/18/2 1/2/1 5/1/5 
f 4/19/4 8/28/8 7/22/7 3/20/3 
f 10/11/10 14/26/14 13/6/13 9/5/9 
f 16/27/16 12/10/12 11/9/11 15/21/15 
f 20/16/20 24/31/24 22/30/22 18/17/18 
f 32/24/32 28/13/28 26/12/26 30/25/30 
f 18/17/18 22/30/22 21/4/21 17/3/17 
f 24/31/24 20/16/20 19/15/19 23/32/23 
f 30/25/30 26/12/26 25/8/25 29/7/29 
f 28/13/28 32/24/32 31/23/31 27/14/27 
