mtllib rail.mtl
o rail.obj
g Polygon
v 0.000000 0.000000 -7.243474
v -2.853996 0.000000 -7.243474
v 0.000000 0.750000 -7.243474
v -2.853996 0.750000 -7.243474
v 0.000000 0.000000 -0.000000
v -5.095531 0.000000 -0.000000
v 0.000000 0.750000 -0.000000
v -5.095531 0.750000 -0.000000
v -2.759502 0.002000 -7.240474
v -1.646005 0.002000 -7.240474
v -0.140873 0.752000 -7.240474
v -0.597137 0.752000 -7.240474
v -1.646006 0.752000 -7.240474
v -2.759503 0.752000 -7.240474
v -2.703974 0.752000 -4.365742
v -2.962554 0.752000 -0.848156
v -2.897005 0.752000 -0.525307
v -2.549668 0.752000 -0.380927
v -0.652538 0.752000 -0.223986
v -0.293669 0.752000 -0.306638
v -0.163792 0.752000 -0.616629
v -0.435187 0.752000 -3.682734
v -2.265680 0.752000 -4.263771
v -2.407989 0.752000 -1.043140
v -0.845678 0.752000 -0.893745
v -0.888350 0.752000 -3.720222
v -0.140873 0.110044 -7.240474
v -0.597137 0.110731 -7.240474
v -2.265680 0.269188 -4.263771
v -2.703974 0.269188 -4.365742
v -2.897005 0.269188 -0.525307
v -2.549668 0.269188 -0.380927
v -2.962554 0.269188 -0.848156
v -2.407989 0.269188 -1.043140
v -0.163792 0.269188 -0.616629
v -0.293669 0.269188 -0.306638
v -0.652538 0.269188 -0.223986
v -0.845678 0.269188 -0.893745
v -0.435187 0.263427 -3.682734
v -0.888350 0.263427 -3.720222
v -3.139582 0.000000 -6.741417
v -3.139582 0.750000 -6.741417
v -5.095531 0.000000 -0.127941
v -5.095531 0.750000 -0.127941
v -2.965344 0.000000 -7.163140
v -2.965344 0.750000 -7.163140
v -3.922753 0.000000 -3.468159
v -3.922753 0.750000 -3.468159
v -3.270823 0.000000 -5.529181
v -3.270823 0.750000 -5.529181
v -3.582156 0.000000 -4.498670
v -3.582156 0.750000 -4.498670
v -4.111052 0.000000 -2.369043
v -4.111052 0.750000 -2.369043
v -4.547503 0.000000 -1.281972
v -4.547503 0.750000 -1.281972
vn 0.573528 -0.579726 -0.578778
vn -0.258235 -0.467404 -0.845487
vn 0.572958 0.579252 -0.579815
vn -0.258046 0.466913 -0.845816
vn 0.577382 -0.576881 0.577788
vn -0.576715 -0.577214 0.578121
vn 0.577816 0.577416 0.576818
vn -0.577284 0.577683 0.577084
vn 0.682158 -0.002645 -0.731200
vn -0.608237 -0.002460 -0.793752
vn -0.564180 0.560000 -0.606713
vn 0.587406 0.596329 -0.547125
vn -0.534841 0.539932 -0.649937
vn 0.585744 0.567449 -0.578711
vn 0.893980 0.447479 0.023700
vn 0.890979 0.450443 -0.057069
vn 0.671931 0.492425 -0.553196
vn 0.210775 0.451365 -0.867089
vn -0.063773 0.451329 -0.890076
vn -0.561340 0.489797 -0.667080
vn -0.878321 0.457999 -0.137075
vn -0.893707 0.448646 0.002104
vn -0.886904 0.448376 -0.111174
vn -0.621241 0.567750 0.540110
vn 0.542641 0.599805 0.588027
vn 0.893705 0.447640 0.030148
vn -0.555210 0.552155 -0.621986
vn 0.580717 0.586867 -0.564230
vn -0.698886 0.705231 -0.119193
vn 0.707251 0.706852 -0.012536
vn 0.671934 0.492678 -0.552967
vn 0.165855 0.711397 -0.682940
vn 0.702362 0.710420 -0.044635
vn -0.328395 0.900357 0.285508
vn -0.688051 0.717618 -0.107752
vn -0.561762 0.489871 -0.666671
vn -0.050501 0.711328 -0.701044
vn 0.275837 0.913841 0.298008
vn -0.705128 0.708943 -0.013961
vn 0.707405 0.706765 0.007868
vn -0.864933 -0.451061 -0.220080
vn -0.864728 0.450914 -0.221183
vn -0.868167 -0.456340 -0.195040
vn -0.867984 0.456202 -0.196171
vn -0.696203 -0.461536 -0.549805
vn -0.695784 0.461205 -0.550613
vn -0.867388 -0.448434 -0.215744
vn -0.867188 0.448290 -0.216844
vn -0.875750 -0.448965 -0.177462
vn -0.875585 0.448841 -0.178584
vn -0.852838 -0.447475 -0.269135
vn -0.852591 0.447305 -0.270199
vn -0.859714 -0.449459 -0.242651
vn -0.859489 0.449301 -0.243737
vn -0.819380 -0.447637 -0.358103
vn -0.819062 0.447422 -0.359097
vt 0.252475 0.004950
vt 0.252475 0.004950
vt 0.747525 0.004950
vt 0.747525 0.004950
vt 0.747525 0.995049
vt 0.500000 0.995049
vt 0.000000 0.000000
vt 0.252475 0.995049
vt 0.747525 0.252475
vt 0.747525 0.283416
vt 0.747525 0.314356
vt 0.747525 0.376238
vt 0.747525 0.407178
vt 0.747525 0.438119
vt 0.747525 0.500000
vt 0.747525 0.747525
vt 0.747525 0.995049
vt 0.747525 0.747525
vt 0.252475 0.995049
vt 0.716584 0.995049
vt 0.747525 0.500000
vt 0.747525 0.438119
vt 0.747525 0.407178
vt 0.747525 0.376238
vt 0.747525 0.314356
vt 0.747525 0.283416
vt 0.747525 0.252475
vt 0.500000 0.995049
vt 0.000000 0.000000
vt 0.000000 0.000000
vt 0.000000 0.000000
vt 0.000000 0.000000
vt 0.000000 0.000000
vt 0.000000 0.000000
vt 0.000000 0.000000
vt 0.000000 0.000000
vt 0.000000 0.000000
vt 0.623762 0.995049
vt 0.685644 0.995049
vt 0.000000 0.000000
vt 0.000000 0.000000
vt 0.000000 0.000000
vt 0.000000 0.000000
vt 0.000000 0.000000
vt 0.376238 0.995049
vt 0.277228 0.004950
vt 0.277228 0.004950
vt 0.722772 0.004950
vt 0.722772 0.004950
vt 0.277228 0.004950
vt 0.277228 0.004950
vt 0.277228 0.004950
vt 0.277228 0.004950
vt 0.277228 0.004950
vt 0.277228 0.004950
vt 0.277228 0.004950
vt 0.277228 0.004950
vt 0.722772 0.004950
vt 0.722772 0.004950
vt 0.722772 0.004950
vt 0.722772 0.500000
vt 0.000000 0.000000
vt 0.722772 0.004950
vt 0.277228 0.004950
vt 0.277228 0.004950
vt 0.277228 0.004950
vt 0.277228 0.004950
vt 0.277228 0.004950
vt 0.277228 0.004950
vt 0.277228 0.004950
vt 0.277228 0.004950
vt 0.277228 0.004950
vt 0.277228 0.004950
vt 0.000000 0.000000
vt 0.000000 0.000000
vt 0.685644 0.995049
vt 0.376238 0.995049
vt 0.277228 0.004950
vt 0.277228 0.004950
vt 0.500000 0.995049
vt 0.722772 0.004950
g Generic
usemtl Default
f 5/1/5 7/2/7 8/3/8 6/4/6 
f 2/5/2 9/6/9 10/7/10 1/8/1 5/1/5 6/4/6 43/9/43 55/10/55 53/11/53 47/12/47 51/13/51 49/14/49 41/15/41 45/16/45 
f 4/17/4 2/5/2 45/16/45 46/18/46 
f 1/8/1 3/19/3 7/2/7 5/1/5 
f 14/20/14 9/6/9 2/5/2 4/17/4 
f 14/20/14 4/17/4 46/18/46 42/21/42 50/22/50 52/23/52 48/24/48 54/25/54 56/26/56 44/27/44 8/3/8 7/2/7 3/19/3 11/28/11 22/29/22 21/30/21 20/31/20 19/32/19 18/33/18 17/34/17 16/35/16 15/36/15 
f 26/37/26 12/38/12 13/39/13 23/40/23 24/41/24 25/42/25 
f 13/39/13 12/38/12 28/43/28 27/44/27 11/28/11 3/19/3 1/8/1 10/45/10 
f 34/46/34 29/47/29 30/60/30 33/48/33 
f 34/46/34 33/48/33 31/49/31 32/50/32 
f 38/51/38 34/46/34 32/50/32 37/52/37 
f 38/51/38 37/52/37 36/53/36 35/54/35 
f 40/55/40 38/51/38 35/54/35 39/56/39 
f 18/57/18 32/50/32 31/49/31 17/58/17 
f 15/59/15 30/60/30 9/61/9 14/62/14 
f 16/63/16 33/48/33 30/60/30 15/59/15 
f 24/64/24 23/65/23 29/47/29 34/46/34 
f 33/48/33 16/63/16 17/58/17 31/49/31 
f 21/66/21 35/54/35 36/53/36 20/67/20 
f 19/68/19 37/52/37 32/50/32 18/57/18 
f 25/69/25 24/64/24 34/46/34 38/51/38 
f 37/52/37 19/68/19 20/67/20 36/53/36 
f 22/70/22 39/56/39 35/54/35 21/66/21 
f 26/71/26 25/69/25 38/51/38 40/55/40 
f 28/72/28 40/55/40 39/56/39 27/73/27 
f 27/73/27 39/56/39 22/70/22 11/74/11 
f 26/71/26 40/55/40 28/72/28 12/75/12 
f 13/76/13 10/77/10 29/78/29 23/79/23 
f 29/78/29 10/77/10 9/80/9 30/81/30 
f 41/15/41 49/14/49 50/22/50 42/21/42 
f 43/9/43 6/4/6 8/3/8 44/27/44 
f 45/16/45 41/15/41 42/21/42 46/18/46 
f 47/12/47 53/11/53 54/25/54 48/24/48 
f 49/14/49 51/13/51 52/23/52 50/22/50 
f 51/13/51 47/12/47 48/24/48 52/23/52 
f 53/11/53 55/10/55 56/26/56 54/25/54 
f 55/10/55 43/9/43 44/27/44 56/26/56 
v -2.753727 0.000000 -7.175512
v -1.645414 0.000000 -7.175512
v -2.753727 0.750000 -7.175512
v -1.645414 0.750000 -7.175512
v -2.753727 0.000000 -6.884673
v -1.645414 0.000000 -6.884673
v -2.753727 0.750000 -6.884673
v -1.645414 0.750000 -6.884673
vn -0.577350 -0.577350 -0.577350
vn 0.577350 -0.577350 -0.577350
vn -0.577350 0.577350 -0.577350
vn 0.577350 0.577350 -0.577350
vn -0.577350 -0.577350 0.577350
vn 0.577350 -0.577350 0.577350
vn -0.577350 0.577350 0.577350
vn 0.577350 0.577350 0.577350
vt 0.722772 0.995049
vt 0.722772 0.995049
vt 0.277228 0.995049
vt 0.277228 0.995049
vt 0.722772 0.004950
vt 0.722772 0.004950
vt 0.277228 0.004950
vt 0.277228 0.004950
g Cube
usemtl Default
f 60/82/60 58/83/58 57/84/57 59/85/59 
f 62/86/62 64/87/64 63/88/63 61/89/61 
f 62/86/62 61/89/61 57/84/57 58/83/58 
f 64/87/64 62/86/62 58/83/58 60/82/60 
f 63/88/63 64/87/64 60/82/60 59/85/59 
f 61/89/61 63/88/63 59/85/59 57/84/57 
v -0.614812 0.114010 -7.209745
v -0.164812 0.114010 -7.209745
v -0.614812 0.724193 -7.209745
v -0.164812 0.724193 -7.209745
v -0.614812 0.114010 -7.050532
v -0.164812 0.114010 -7.050532
v -0.614812 0.724193 -7.050532
v -0.164812 0.724193 -7.050532
vn -0.577350 -0.577350 -0.577350
vn 0.577350 -0.577350 -0.577350
vn -0.577350 0.577350 -0.577350
vn 0.577350 0.577350 -0.577350
vn -0.577350 -0.577350 0.577350
vn 0.577350 -0.577350 0.577350
vn -0.577350 0.577350 0.577350
vn 0.577350 0.577350 0.577350
vt 0.722772 0.995049
vt 0.722772 0.995049
vt 0.277228 0.995049
vt 0.277228 0.995049
vt 0.722772 0.004950
vt 0.722772 0.004950
vt 0.277228 0.004950
vt 0.277228 0.004950
g Cube
usemtl Default
f 68/90/68 66/91/66 65/92/65 67/93/67 
f 70/94/70 72/95/72 71/96/71 69/97/69 
f 70/94/70 69/97/69 65/92/65 66/91/66 
f 72/95/72 70/94/70 66/91/66 68/90/68 
f 71/96/71 72/95/72 68/90/68 67/93/67 
f 69/97/69 71/96/71 67/93/67 65/92/65 
v -3.000000 0.750000 -7.263959
v 0.000000 0.750000 -7.263959
v -3.000000 0.750000 -0.263959
v 0.000000 0.750000 -0.263959
vn 0.000000 -1.000000 0.000000
vn 0.000000 -1.000000 0.000000
vn 0.000000 -1.000000 0.000000
vn 0.000000 -1.000000 0.000000
vt 0.169967 0.995049
vt 0.830033 0.995049
vt 0.830033 0.004950
vt 0.169967 0.004950
g Grid
usemtl Default
f 73/98/73 74/99/74 76/100/76 75/101/75 
