mtllib rail.mtl
o rail.obj
g Polygon
v 0.000000 0.000000 -7.243474
v -2.853996 0.000000 -7.243474
v 0.000000 0.750000 -7.243474
v -2.853996 0.750000 -7.243474
v -5.095531 0.000000 -0.000000
v 0.000000 0.750000 -0.000000
v -5.095531 0.750000 -0.000000
v -2.759502 0.002000 -7.240474
v -1.646005 0.002000 -7.240474
v -0.140873 0.752000 -7.240474
v -0.597137 0.752000 -7.240474
v -1.646006 0.752000 -7.240474
v -2.759503 0.752000 -7.240474
v -2.703974 0.752000 -4.365742
v -2.962554 0.752000 -0.848156
v -2.897005 0.752000 -0.525307
v -2.549668 0.752000 -0.380927
v -0.652538 0.752000 -0.223986
v -0.293669 0.752000 -0.306638
v -0.163792 0.752000 -0.616629
v -0.435187 0.752000 -3.682734
v -2.265680 0.752000 -4.263771
v -2.407989 0.752000 -1.043140
v -0.845678 0.752000 -0.893745
v -0.888350 0.752000 -3.720222
v -0.140873 0.110044 -7.240474
v -0.597137 0.110731 -7.240474
v -2.265680 0.269188 -4.263771
v -2.703974 0.269188 -4.365742
v -2.897005 0.269188 -0.525307
v -2.549668 0.269188 -0.380927
v -2.962554 0.269188 -0.848156
v -2.407989 0.269188 -1.043140
v -0.163792 0.269188 -0.616629
v -0.293669 0.269188 -0.306638
v -0.652538 0.269188 -0.223986
v -0.845678 0.269188 -0.893745
v -0.435187 0.263427 -3.682734
v -0.888350 0.263427 -3.720222
v -3.139582 0.000000 -6.741417
v -3.139582 0.750000 -6.741417
v -5.095531 0.000000 -0.127941
v -5.095531 0.750000 -0.127941
v -2.965344 0.000000 -7.163140
v -2.965344 0.750000 -7.163140
v -3.922753 0.000000 -3.468159
v -3.922753 0.750000 -3.468159
v -3.270823 0.000000 -5.529181
v -3.270823 0.750000 -5.529181
v -3.582156 0.000000 -4.498670
v -3.582156 0.750000 -4.498670
v -4.111052 0.000000 -2.369043
v -4.111052 0.750000 -2.369043
v -4.547503 0.000000 -1.281972
v -4.547503 0.750000 -1.281972
vn -0.011558 -0.000000 -0.999933
vn -0.292294 0.000000 -0.956329
vn -0.007680 0.706743 -0.707429
vn -0.258046 0.466913 -0.845816
vn -1.000000 0.000000 0.000000
vn 0.000691 0.999999 -0.001038
vn -0.706862 0.707351 -0.000734
vn 0.569211 0.549593 -0.611512
vn -0.518812 0.521654 -0.677283
vn -0.564180 0.560000 -0.606713
vn 0.587406 0.596329 -0.547125
vn -0.534841 0.539932 -0.649937
vn 0.585744 0.567449 -0.578711
vn 0.893980 0.447479 0.023700
vn 0.890979 0.450443 -0.057069
vn 0.671931 0.492425 -0.553196
vn 0.210775 0.451365 -0.867089
vn -0.063773 0.451329 -0.890076
vn -0.561340 0.489797 -0.667080
vn -0.878321 0.457999 -0.137075
vn -0.893707 0.448646 0.002104
vn -0.886904 0.448376 -0.111174
vn -0.621241 0.567750 0.540110
vn 0.542641 0.599805 0.588027
vn 0.893705 0.447640 0.030148
vn -0.555210 0.552155 -0.621986
vn 0.580717 0.586867 -0.564230
vn -0.698886 0.705231 -0.119193
vn 0.707251 0.706852 -0.012536
vn 0.671934 0.492678 -0.552967
vn 0.165855 0.711397 -0.682940
vn 0.702362 0.710420 -0.044635
vn -0.328395 0.900357 0.285508
vn -0.688051 0.717618 -0.107752
vn -0.561762 0.489871 -0.666671
vn -0.050501 0.711328 -0.701044
vn 0.275837 0.913841 0.298008
vn -0.705128 0.708943 -0.013961
vn 0.707405 0.706765 0.007868
vn -0.968957 0.000000 -0.247230
vn -0.864728 0.450914 -0.221183
vn -0.975530 0.000000 -0.219865
vn -0.867984 0.456202 -0.196171
vn -0.784565 0.000000 -0.620047
vn -0.695784 0.461205 -0.550613
vn -0.970273 0.000000 -0.242014
vn -0.867188 0.448290 -0.216844
vn -0.979943 0.000000 -0.199277
vn -0.875585 0.448841 -0.178584
vn -0.953455 0.000000 -0.301536
vn -0.852591 0.447305 -0.270199
vn -0.962226 0.000000 -0.272251
vn -0.859489 0.449301 -0.243737
vn -0.916092 0.000000 -0.400967
vn -0.819062 0.447422 -0.359097
vt 0.543760 0.970243
vt 0.517467 0.991585
vt 0.474302 0.995049
vt 0.530847 0.966238
vt 0.555422 0.975002
vt 0.555422 0.975002
vt 0.504315 0.915990
vt 0.463101 0.766155
vt 0.411707 0.636296
vt 0.366552 0.515552
vt 0.331877 0.393205
vt 0.258323 0.265783
vt 0.164431 0.112643
vt 0.162051 0.093622
vt 0.923558 0.004950
vt 0.931415 0.975262
vt 0.912819 0.975002
vt 0.872650 0.489433
vt 0.903586 0.106388
vt 0.876272 0.063620
vt 0.825312 0.049456
vt 0.544597 0.105831
vt 0.486423 0.143833
vt 0.466252 0.203017
vt 0.514030 0.609601
vt 0.778156 0.511796
vt 0.808231 0.916190
vt 0.738473 0.924604
vt 0.652942 0.572525
vt 0.614231 0.245588
vt 0.756866 0.217289
vt 0.838504 0.931861
vt 0.861284 0.953415
vt 0.894179 0.943190
vt 0.707395 0.975002
vt 0.580045 0.233208
vt 0.622820 0.568735
vt 0.570186 0.596688
vt 0.519835 0.205620
vt 0.527742 0.176754
vt 0.559281 0.158271
vt 0.783503 0.191739
vt 0.815032 0.111200
vt 0.840733 0.111306
vt 0.848881 0.130067
vt 0.810189 0.507559
vt 0.839313 0.497831
vt 0.424218 0.947720
vt 0.371680 0.798630
vt 0.078680 0.168744
vt 0.068585 0.152800
vt 0.286486 0.544509
vt 0.249214 0.430870
vt 0.325414 0.667867
vt 0.174970 0.314798
g Generic
usemtl Default
f 4/1/4 2/2/2 44/3/44 45/4/45 
f 13/5/13 8/6/8 2/2/2 4/1/4 
f 13/5/13 4/1/4 45/4/45 41/7/41 49/8/49 51/9/51 47/10/47 53/11/53 55/12/55 43/13/43 7/14/7 6/15/6 3/16/3 10/17/10 21/18/21 20/19/20 19/20/19 18/21/18 17/22/17 16/23/16 15/24/15 14/25/14 
f 25/26/25 11/27/11 12/28/12 22/29/22 23/30/23 24/31/24 
f 12/28/12 11/27/11 27/32/27 26/33/26 10/17/10 3/16/3 1/34/1 9/35/9 
f 33/36/33 28/37/28 29/38/29 32/39/32 
f 33/36/33 32/39/32 30/40/30 31/41/31 
f 37/42/37 33/36/33 31/41/31 36/43/36 
f 37/42/37 36/43/36 35/44/35 34/45/34 
f 39/46/39 37/42/37 34/45/34 38/47/38 
f 17/22/17 31/41/31 30/40/30 16/23/16 
f 14/25/14 29/38/29 8/6/8 13/5/13 
f 15/24/15 32/39/32 29/38/29 14/25/14 
f 23/30/23 22/29/22 28/37/28 33/36/33 
f 32/39/32 15/24/15 16/23/16 30/40/30 
f 20/19/20 34/45/34 35/44/35 19/20/19 
f 18/21/18 36/43/36 31/41/31 17/22/17 
f 24/31/24 23/30/23 33/36/33 37/42/37 
f 36/43/36 18/21/18 19/20/19 35/44/35 
f 21/18/21 38/47/38 34/45/34 20/19/20 
f 25/26/25 24/31/24 37/42/37 39/46/39 
f 27/32/27 39/46/39 38/47/38 26/33/26 
f 26/33/26 38/47/38 21/18/21 10/17/10 
f 25/26/25 39/46/39 27/32/27 11/27/11 
f 12/28/12 9/35/9 28/37/28 22/29/22 
f 28/37/28 9/35/9 8/6/8 29/38/29 
f 40/48/40 48/49/48 49/8/49 41/7/41 
f 42/50/42 5/51/5 7/14/7 43/13/43 
f 44/3/44 40/48/40 41/7/41 45/4/45 
f 46/52/46 52/53/52 53/11/53 47/10/47 
f 48/49/48 50/54/50 51/9/51 49/8/49 
f 50/54/50 46/52/46 47/10/47 51/9/51 
f 52/53/52 54/55/54 55/12/55 53/11/53 
f 54/55/54 42/50/42 43/13/43 55/12/55 
v -2.753727 0.000000 -7.175512
v -1.645414 0.000000 -7.175512
v -2.753727 0.750000 -7.175512
v -1.645414 0.750000 -7.175512
v -2.753727 0.000000 -6.884673
v -1.645414 0.000000 -6.884673
v -2.753727 0.750000 -6.884673
v -1.645414 0.750000 -6.884673
vn -0.577350 -0.577350 -0.577350
vn 0.577350 -0.577350 -0.577350
vn -0.577350 0.577350 -0.577350
vn 0.577350 0.577350 -0.577350
vn -0.577350 -0.577350 0.577350
vn 0.577350 -0.577350 0.577350
vn -0.577350 0.577350 0.577350
vn 0.577350 0.577350 0.577350
vt 0.722772 0.995049
vt 0.722772 0.995049
vt 0.277228 0.995049
vt 0.277228 0.995049
vt 0.722772 0.004950
vt 0.722772 0.004950
vt 0.277228 0.004950
vt 0.277228 0.004950
g Cube
usemtl Default
f 59/56/59 57/57/57 56/58/56 58/59/58 
f 61/60/61 63/61/63 62/62/62 60/63/60 
f 61/60/61 60/63/60 56/58/56 57/57/57 
f 63/61/63 61/60/61 57/57/57 59/56/59 
f 62/62/62 63/61/63 59/56/59 58/59/58 
f 60/63/60 62/62/62 58/59/58 56/58/56 
v -0.614812 0.114010 -7.209745
v -0.164812 0.114010 -7.209745
v -0.614812 0.724193 -7.209745
v -0.164812 0.724193 -7.209745
v -0.614812 0.114010 -7.050532
v -0.164812 0.114010 -7.050532
v -0.614812 0.724193 -7.050532
v -0.164812 0.724193 -7.050532
vn -0.577350 -0.577350 -0.577350
vn 0.577350 -0.577350 -0.577350
vn -0.577350 0.577350 -0.577350
vn 0.577350 0.577350 -0.577350
vn -0.577350 -0.577350 0.577350
vn 0.577350 -0.577350 0.577350
vn -0.577350 0.577350 0.577350
vn 0.577350 0.577350 0.577350
vt 0.722772 0.995049
vt 0.722772 0.995049
vt 0.277228 0.995049
vt 0.277228 0.995049
vt 0.722772 0.004950
vt 0.722772 0.004950
vt 0.277228 0.004950
vt 0.277228 0.004950
g Cube
usemtl Default
f 67/64/67 65/65/65 64/66/64 66/67/66 
f 69/68/69 71/69/71 70/70/70 68/71/68 
f 69/68/69 68/71/68 64/66/64 65/65/65 
f 71/69/71 69/68/69 65/65/65 67/64/67 
f 70/70/70 71/69/71 67/64/67 66/67/66 
f 68/71/68 70/70/70 66/67/66 64/66/64 
v -3.000000 0.750000 -7.263959
v 0.000000 0.750000 -7.263959
v -3.000000 0.750000 -0.263959
v 0.000000 0.750000 -0.263959
vn 0.000000 -1.000000 0.000000
vn 0.000000 -1.000000 0.000000
vn 0.000000 -1.000000 0.000000
vn 0.000000 -1.000000 0.000000
vt 0.169967 0.995049
vt 0.830033 0.995049
vt 0.830033 0.004950
vt 0.169967 0.004950
g Grid
usemtl Default
f 72/72/72 73/73/73 75/74/75 74/75/74 
