mtllib rolloverWire.mtl
o rolloverWire.obj
v -0.097880 0.016965 -0.300000
v 0.097880 0.016965 -0.300000
v -0.097880 0.016965 0.300000
v 0.097880 0.016965 0.300000
v 0.161171 0.016965 -0.200000
v -0.161171 0.016965 -0.200000
v -0.161171 0.016965 0.200000
v 0.161171 0.016965 0.200000
v 0.012554 0.000000 0.250000
v 0.080000 0.000000 0.200000
v 0.080000 0.000000 -0.200000
v 0.012554 0.000000 -0.250000
v 0.008877 0.010874 0.250000
v 0.056569 0.056569 0.200000
v 0.056569 0.056569 -0.200000
v 0.008877 0.010874 -0.250000
v -0.000000 0.015378 0.250000
v 0.000000 0.080000 0.200000
v 0.000000 0.080000 -0.200000
v -0.000000 0.015378 -0.250000
v -0.008877 0.010874 0.250000
v -0.056569 0.056569 0.200000
v -0.056569 0.056569 -0.200000
v -0.008877 0.010874 -0.250000
v -0.012554 0.000000 0.250000
v -0.080000 0.000000 0.200000
v -0.080000 0.000000 -0.200000
v -0.012554 0.000000 -0.250000
v 0.000000 0.000000 -0.250000
v 0.000000 0.000000 0.250000
vn 0.000000 1.000000 0.000000
vn 0.000000 1.000000 0.000000
vn 0.000000 1.000000 0.000000
vn 0.000000 1.000000 0.000000
vn 0.000000 1.000000 0.000000
vn 0.000000 1.000000 0.000000
vn 0.000000 1.000000 0.000000
vn 0.000000 1.000000 0.000000
vn 0.308769 0.104410 0.945389
vn 0.838923 0.322784 0.438199
vn 0.832989 0.345036 -0.432527
vn 0.306451 0.126936 -0.943385
vn 0.231291 0.201541 0.951780
vn 0.642803 0.609824 0.463594
vn 0.627894 0.629716 -0.457391
vn 0.219954 0.221606 -0.950006
vn -0.003605 0.307488 0.951545
vn -0.003985 0.889577 0.456767
vn -0.000541 0.891766 -0.452497
vn -0.000493 0.316909 -0.948456
vn -0.242931 0.212241 0.946540
vn -0.649061 0.615527 0.447042
vn -0.628925 0.630763 -0.454523
vn -0.221881 0.223552 -0.949101
vn -0.323160 0.109276 0.940014
vn -0.845610 0.324746 0.423655
vn -0.834191 0.345533 -0.429806
vn -0.309078 0.128024 -0.942380
vn 0.000000 0.000000 -1.000000
vn 0.000000 0.000000 1.000000
vt 0.338482 0.004950
vt 0.661518 0.004950
vt 0.765959 0.169967
vt 0.234041 0.169967
vt 0.765959 0.830033
vt 0.661518 0.995049
vt 0.338482 0.995049
vt 0.234041 0.830033
vt 0.514648 0.087459
vt 0.520716 0.087459
vt 0.632013 0.169967
vt 0.593347 0.169967
vt 0.632013 0.830033
vt 0.593347 0.830033
vt 0.520716 0.912541
vt 0.514648 0.912541
vt 0.500000 0.912541
vt 0.500000 0.087459
vt 0.500000 0.087459
vt 0.500000 0.169967
vt 0.500000 0.830033
vt 0.500000 0.912541
vt 0.485352 0.087459
vt 0.406653 0.169967
vt 0.406653 0.830033
vt 0.485352 0.912541
vt 0.479284 0.087459
vt 0.367987 0.169967
vt 0.367987 0.830033
vt 0.479284 0.912541
g Grid
usemtl Default
f 3/1/3 4/2/4 8/3/8 7/4/7 
f 5/5/5 2/6/2 1/7/1 6/8/6 
f 8/3/8 5/5/5 6/8/6 7/4/7 
f 13/9/13 9/10/9 10/11/10 14/12/14 
f 14/12/14 10/11/10 11/13/11 15/14/15 
f 15/14/15 11/13/11 12/15/12 16/16/16 
f 16/16/16 12/15/12 29/17/29 
f 9/10/9 13/9/13 30/18/30 
f 17/19/17 13/9/13 14/12/14 18/20/18 
f 18/20/18 14/12/14 15/14/15 19/21/19 
f 19/21/19 15/14/15 16/16/16 20/22/20 
f 20/22/20 16/16/16 29/17/29 
f 13/9/13 17/19/17 30/18/30 
f 21/23/21 17/19/17 18/20/18 22/24/22 
f 22/24/22 18/20/18 19/21/19 23/25/23 
f 23/25/23 19/21/19 20/22/20 24/26/24 
f 24/26/24 20/22/20 29/17/29 
f 17/19/17 21/23/21 30/18/30 
f 25/27/25 21/23/21 22/24/22 26/28/26 
f 26/28/26 22/24/22 23/25/23 27/29/27 
f 27/29/27 23/25/23 24/26/24 28/30/28 
f 28/30/28 24/26/24 29/17/29 
f 21/23/21 25/27/25 30/18/30 
