mtllib sideBumper.mtl
o sideBumper.obj
v 0.000000 0.000000 -0.500000
v 0.000000 0.750000 -0.500000
v 0.000000 0.000000 0.500000
v 0.000000 0.750000 0.500000
v 0.470444 0.000000 -0.076600
v 0.484401 0.000000 -0.057397
v 0.500000 0.000000 -0.010236
v 0.495063 0.000000 -0.033457
v 0.470444 0.750000 -0.076600
v 0.484401 0.750000 -0.057397
v 0.500000 0.750000 -0.010236
v 0.495063 0.750000 -0.033457
v 0.470444 0.000000 0.076600
v 0.484401 0.000000 0.057397
v 0.500000 0.000000 0.010236
v 0.495063 0.000000 0.033457
v 0.470444 0.750000 0.076600
v 0.484401 0.750000 0.057397
v 0.500000 0.750000 0.010236
v 0.495063 0.750000 0.033457
vn -0.256773 -0.775667 -0.576549
vn -0.256773 0.775667 -0.576549
vn -0.256773 -0.775667 0.576549
vn -0.256773 0.775667 0.576549
vn 0.663839 -0.449182 -0.597958
vn 0.773680 -0.449182 -0.446828
vn 0.888543 -0.449182 -0.093415
vn 0.849689 -0.449182 -0.276159
vn 0.663839 0.449182 -0.597958
vn 0.773680 0.449182 -0.446828
vn 0.888543 0.449182 -0.093415
vn 0.849689 0.449182 -0.276159
vn 0.663839 -0.449182 0.597958
vn 0.773680 -0.449182 0.446828
vn 0.888543 -0.449182 0.093415
vn 0.849689 -0.449182 0.276159
vn 0.663839 0.449182 0.597958
vn 0.773680 0.449182 0.446828
vn 0.888543 0.449182 0.093415
vn 0.849689 0.449182 0.276159
vt 0.470737 0.575842
vt 0.470737 0.575842
vt 0.004950 0.995049
vt 0.004950 0.995049
vt 0.470737 0.424158
vt 0.470737 0.424158
vt 0.004950 0.004950
vt 0.004950 0.004950
vt 0.500000 0.489865
vt 0.495112 0.466874
vt 0.484556 0.443172
vt 0.484556 0.556828
vt 0.495112 0.533126
vt 0.500000 0.510135
vt 0.500000 0.489865
vt 0.500000 0.510135
vt 0.484556 0.443172
vt 0.495112 0.466874
vt 0.495112 0.533126
vt 0.484556 0.556828
g Cube
usemtl Default
f 9/1/9 5/2/5 1/3/1 2/4/2 
f 13/5/13 17/6/17 4/7/4 3/8/3 
f 15/9/15 16/10/16 14/11/14 13/5/13 3/8/3 1/3/1 5/2/5 6/12/6 8/13/8 7/14/7 
f 19/15/19 15/9/15 7/14/7 11/16/11 
f 4/7/4 17/6/17 18/17/18 20/18/20 19/15/19 11/16/11 12/19/12 10/20/10 9/1/9 2/4/2 
f 3/8/3 4/7/4 2/4/2 1/3/1 
f 12/19/12 8/13/8 6/12/6 10/20/10 
f 16/10/16 20/18/20 18/17/18 14/11/14 
f 10/20/10 6/12/6 5/2/5 9/1/9 
f 8/13/8 12/19/12 11/16/11 7/14/7 
f 14/11/14 18/17/18 17/6/17 13/5/13 
f 20/18/20 16/10/16 15/9/15 19/15/19 
