mtllib switch.mtl
o switch.obj
v 0.175000 0.000000 0.000000
v 0.175000 0.100000 0.000000
v 0.123744 0.000000 0.123744
v 0.123744 0.100000 0.123744
v 0.000000 0.000000 0.175000
v 0.000000 0.100000 0.175000
v -0.123744 0.000000 0.123744
v -0.123744 0.100000 0.123744
v -0.175000 0.000000 0.000000
v -0.175000 0.100000 0.000000
v -0.123744 0.000000 -0.123744
v -0.123744 0.100000 -0.123744
v 0.000000 0.000000 -0.175000
v 0.000000 0.100000 -0.175000
v 0.123744 0.000000 -0.123744
v 0.123744 0.100000 -0.123744
v 0.000000 0.100000 0.000000
v 0.000000 0.000000 0.000000
vn 0.678598 -0.734510 0.000000
vn 0.678598 0.734510 0.000000
vn 0.479841 -0.734510 0.479841
vn 0.479841 0.734510 0.479841
vn 0.000000 -0.734510 0.678598
vn 0.000000 0.734510 0.678598
vn -0.479841 -0.734510 0.479841
vn -0.479841 0.734510 0.479841
vn -0.678598 -0.734510 0.000000
vn -0.678598 0.734510 0.000000
vn -0.479841 -0.734510 -0.479841
vn -0.479841 0.734510 -0.479841
vn 0.000000 -0.734510 -0.678598
vn 0.000000 0.734510 -0.678598
vn 0.479841 -0.734510 -0.479841
vn 0.479841 0.734510 -0.479841
vn 0.000000 1.000000 0.000000
vn 0.000000 -1.000000 0.000000
vt 0.850053 0.149947
vt 0.995049 0.500000
vt 0.995049 0.500000
vt 0.850053 0.149947
vt 0.500000 0.500000
vt 0.500000 0.500000
vt 0.500000 0.004950
vt 0.500000 0.004950
vt 0.149947 0.149947
vt 0.149947 0.149947
vt 0.004950 0.500000
vt 0.004950 0.500000
vt 0.149947 0.850053
vt 0.149947 0.850053
vt 0.500000 0.995049
vt 0.500000 0.995049
vt 0.850053 0.850053
vt 0.850053 0.850053
g Cylinder
usemtl Default
f 3/1/3 1/2/1 2/3/2 4/4/4 
f 4/4/4 2/3/2 17/5/17 
f 1/2/1 3/1/3 18/6/18 
f 5/7/5 3/1/3 4/4/4 6/8/6 
f 6/8/6 4/4/4 17/5/17 
f 3/1/3 5/7/5 18/6/18 
f 7/9/7 5/7/5 6/8/6 8/10/8 
f 8/10/8 6/8/6 17/5/17 
f 5/7/5 7/9/7 18/6/18 
f 9/11/9 7/9/7 8/10/8 10/12/10 
f 10/12/10 8/10/8 17/5/17 
f 7/9/7 9/11/9 18/6/18 
f 11/13/11 9/11/9 10/12/10 12/14/12 
f 12/14/12 10/12/10 17/5/17 
f 9/11/9 11/13/11 18/6/18 
f 13/15/13 11/13/11 12/14/12 14/16/14 
f 14/16/14 12/14/12 17/5/17 
f 11/13/11 13/15/13 18/6/18 
f 15/17/15 13/15/13 14/16/14 16/18/16 
f 16/18/16 14/16/14 17/5/17 
f 13/15/13 15/17/15 18/6/18 
f 1/2/1 15/17/15 16/18/16 2/3/2 
f 2/3/2 16/18/16 17/5/17 
f 15/17/15 1/2/1 18/6/18 
