mtllib topCurve.mtl
o topCurve.obj
v 0.001600 0.002000 -2.403356
v 4.000533 0.002000 -0.149413
v 4.000533 0.752000 -0.149413
v 0.001600 0.752000 -2.403356
v 0.173078 0.002000 -1.873255
v 0.468711 0.002000 -1.354595
v 0.866565 0.002000 -0.899985
v 1.351353 0.002000 -0.526897
v 1.904443 0.002000 -0.249667
v 2.504581 0.002000 -0.078950
v 3.128703 0.002000 -0.021305
v 3.752826 0.002000 -0.078950
v 3.752826 0.752000 -0.078950
v 3.128703 0.752000 -0.021305
v 2.504581 0.752000 -0.078950
v 1.904443 0.752000 -0.249667
v 1.351353 0.752000 -0.526897
v 0.866565 0.752000 -0.899985
v 0.468711 0.752000 -1.354595
v 0.173078 0.752000 -1.873255
v 4.001309 0.003579 0.000000
v 4.001309 0.753579 0.000000
v 0.001732 0.752373 0.000000
v 0.001732 0.002373 0.000000
vn -0.045755 -0.956054 -0.289599
vn 0.464082 -0.638289 -0.614179
vn 0.461644 0.636135 -0.618236
vn -0.046935 0.953415 -0.297987
vn 0.818213 -0.449334 -0.358645
vn 0.728961 -0.449421 -0.516369
vn 0.612689 -0.449479 -0.650062
vn 0.475900 -0.449519 -0.755944
vn 0.324755 -0.449550 -0.832129
vn 0.164665 -0.449575 -0.877934
vn 0.000308 -0.449599 -0.893231
vn -0.164065 -0.449621 -0.878023
vn -0.164040 0.447871 -0.878921
vn -0.000307 0.447865 -0.894101
vn 0.163443 0.447916 -0.879010
vn 0.323038 0.448022 -0.833620
vn 0.473869 0.448181 -0.758012
vn 0.610581 0.448383 -0.652797
vn 0.727040 0.448615 -0.519766
vn 0.816733 0.448859 -0.362592
vn 0.577683 -0.577288 0.577079
vn 0.579010 0.579408 0.573615
vn -0.578533 0.578130 0.575383
vn -0.576151 -0.576539 0.579356
vt 0.000000 0.000000
vt 0.000000 0.000000
vt 0.596579 0.014463
vt 0.596579 0.014463
vt 0.000000 0.000000
vt 0.042634 0.310553
vt 0.042634 0.310553
vt 0.000000 0.000000
vt 0.500000 0.004951
vt 0.500000 0.004951
vt 0.403420 0.014463
vt 0.403420 0.014463
vt 0.310553 0.042634
vt 0.310553 0.042634
vt 0.224965 0.088382
vt 0.224965 0.088382
vt 0.149947 0.149947
vt 0.149947 0.149947
vt 0.088381 0.224965
vt 0.088381 0.224965
vt 0.004950 0.252475
vt 0.004950 0.500000
vt 0.000000 0.000000
vt 0.000000 0.000000
vt 0.000000 0.000000
vt 0.000000 0.000000
vt 0.000000 0.000000
vt 0.000000 0.000000
vt 0.000000 0.000000
vt 0.000000 0.000000
vt 0.995049 0.500000
vt 0.995049 0.252475
vt 0.995049 0.500000
vt 0.995049 0.252475
vt 0.000000 0.000000
vt 0.000000 0.000000
vt 0.000000 0.000000
vt 0.000000 0.000000
vt 0.000000 0.000000
vt 0.000000 0.000000
vt 0.000000 0.000000
vt 0.000000 0.000000
vt 0.004950 0.500000
vt 0.004950 0.252475
vt 0.000000 0.000000
vt 0.000000 0.000000
vt 0.000000 0.000000
vt 0.000000 0.000000
g Generic
usemtl Default
f 3/1/3 2/2/2 12/3/12 13/4/13 
f 4/5/4 20/6/20 5/7/5 1/8/1 
f 13/4/13 12/3/12 11/9/11 14/10/14 
f 14/10/14 11/9/11 10/11/10 15/12/15 
f 15/12/15 10/11/10 9/13/9 16/14/16 
f 16/14/16 9/13/9 8/15/8 17/16/17 
f 17/16/17 8/15/8 7/17/7 18/18/18 
f 18/18/18 7/17/7 6/19/6 19/20/19 
f 19/20/19 6/19/6 5/7/5 20/6/20 
f 24/21/24 1/22/1 5/23/5 6/24/6 7/25/7 8/26/8 9/27/9 10/28/10 11/29/11 12/30/12 2/31/2 21/32/21 
f 21/32/21 2/31/2 3/33/3 22/34/22 
f 22/34/22 3/33/3 13/35/13 14/36/14 15/37/15 16/38/16 17/39/17 18/40/18 19/41/19 20/42/20 4/43/4 23/44/23 
f 23/44/23 4/43/4 1/22/1 24/21/24 
f 24/45/24 21/46/21 22/47/22 23/48/23 
