mtllib triangleBumper.mtl
o triangleBumper.obj
v -0.245930 0.388756 0.443188
v -0.296254 0.387877 0.453080
v -0.353376 0.386880 0.398484
v -0.324915 0.387377 0.441156
v 0.786823 0.406783 -1.114326
v 0.797019 0.406960 -1.164597
v 0.742779 0.406014 -1.222055
v 0.785271 0.406755 -1.193332
v -0.239274 -0.011189 0.442862
v -0.289550 -0.012067 0.452864
v -0.346395 -0.013059 0.398484
v -0.317916 -0.012562 0.441113
v 0.794128 0.006849 -1.123077
v 0.804129 0.007024 -1.173360
v 0.749757 0.006075 -1.230214
v 0.792379 0.006819 -1.201731
v -0.214827 0.389299 -0.949162
v -0.284334 0.388085 -0.920735
v -0.353376 0.386880 -0.811427
v -0.324534 0.387384 -0.880771
v -0.207843 -0.010640 -0.950000
v -0.277264 -0.011852 -0.921241
v -0.346395 -0.013059 -0.811427
v -0.317640 -0.012557 -0.880858
vn 0.482808 0.480274 0.732280
vn -0.094952 0.461224 0.882189
vn -0.856232 0.448143 0.256971
vn -0.570536 0.453171 0.684927
vn 0.817817 0.462685 0.342195
vn 0.873375 0.479903 -0.083122
vn 0.122902 0.499029 -0.857826
vn 0.674112 0.484557 -0.557475
vn 0.496747 -0.472072 0.728279
vn -0.078758 -0.464825 0.881893
vn -0.840034 -0.477822 0.256961
vn -0.554318 -0.472961 0.684864
vn 0.828420 -0.445090 0.340023
vn 0.891128 -0.446046 -0.083272
vn 0.142068 -0.466836 -0.872858
vn 0.697907 -0.441774 -0.563703
vn -0.301829 0.449879 -0.840541
vn -0.499862 0.446082 -0.742394
vn -0.881535 0.438966 -0.173798
vn -0.747697 0.441522 -0.495991
vn -0.288647 -0.445391 -0.847531
vn -0.484290 -0.462256 -0.742821
vn -0.865784 -0.469261 -0.173818
vn -0.732021 -0.466924 -0.496112
g Cube
usemtl Default
f 13//13 5//5 1//1 9//9 
f 7//7 15//15 21//21 17//17 
f 5//5 6//6 8//8 7//7 17//17 18//18 20//20 19//19 3//3 4//4 2//2 1//1 
f 23//23 24//24 22//22 21//21 15//15 16//16 14//14 13//13 9//9 10//10 12//12 11//11 
f 19//19 23//23 11//11 3//3 
f 16//16 8//8 6//6 14//14 
f 4//4 12//12 10//10 2//2 
f 14//14 6//6 5//5 13//13 
f 8//8 16//16 15//15 7//7 
f 2//2 10//10 9//9 1//1 
f 12//12 4//4 3//3 11//11 
f 24//24 20//20 18//18 22//22 
f 22//22 18//18 17//17 21//21 
f 20//20 24//24 23//23 19//19 
