mtllib triangleBumper.mtl
o triangleBumper.obj
v -0.245930 0.388756 0.443188
v -0.296254 0.387877 0.453080
v -0.353376 0.386880 0.398484
v -0.324915 0.387377 0.441156
v 0.786823 0.406783 -1.114326
v 0.797019 0.406960 -1.164597
v 0.742779 0.406014 -1.222055
v 0.785271 0.406755 -1.193332
v -0.239274 -0.011189 0.442862
v -0.289550 -0.012067 0.452864
v -0.346395 -0.013059 0.398484
v -0.317916 -0.012562 0.441113
v 0.794128 0.006849 -1.123077
v 0.804129 0.007024 -1.173360
v 0.749757 0.006075 -1.230214
v 0.792379 0.006819 -1.201731
v -0.214827 0.389299 -0.768997
v -0.284334 0.388085 -0.740571
v -0.353376 0.386880 -0.631263
v -0.324534 0.387384 -0.700607
v -0.207843 -0.010640 -0.769836
v -0.277264 -0.011852 -0.741076
v -0.346395 -0.013059 -0.631263
v -0.317640 -0.012557 -0.700694
vn 0.482808 0.480274 0.732280
vn -0.094952 0.461224 0.882189
vn -0.856232 0.448143 0.256971
vn -0.570536 0.453171 0.684927
vn 0.817817 0.462685 0.342195
vn 0.873375 0.479903 -0.083122
vn 0.051536 0.513272 -0.856678
vn 0.674112 0.484557 -0.557475
vn 0.496747 -0.472072 0.728279
vn -0.078758 -0.464825 0.881893
vn -0.840034 -0.477822 0.256961
vn -0.554318 -0.472961 0.684864
vn 0.828420 -0.445090 0.340023
vn 0.891128 -0.446046 -0.083272
vn 0.070040 -0.484150 -0.872177
vn 0.697907 -0.441774 -0.563703
vn -0.369589 0.447949 -0.814092
vn -0.499862 0.446082 -0.742394
vn -0.881535 0.438966 -0.173798
vn -0.747697 0.441522 -0.495991
vn -0.356804 -0.446692 -0.820462
vn -0.484290 -0.462256 -0.742821
vn -0.865784 -0.469261 -0.173818
vn -0.732021 -0.466924 -0.496112
vt 0.733689 0.323769
vt 0.692688 0.337159
vt 0.628233 0.148454
vt 0.667441 0.135115
vt 0.051181 0.144057
vt 0.157650 0.154733
vt 0.126799 0.437261
vt 0.020439 0.425751
vt 0.927016 0.768657
vt 0.931380 0.790174
vt 0.926350 0.802473
vt 0.908159 0.814766
vt 0.498238 0.620821
vt 0.468484 0.608652
vt 0.451276 0.591546
vt 0.438932 0.561864
vt 0.438962 0.121115
vt 0.451146 0.102852
vt 0.463416 0.097749
vt 0.484957 0.101983
vt 0.430422 0.543227
vt 0.425405 0.575001
vt 0.412643 0.595849
vt 0.386628 0.614769
vt 0.034146 0.902251
vt 0.013554 0.894666
vt 0.005822 0.884036
vt 0.004950 0.862108
vt 0.278293 0.106945
vt 0.298218 0.097749
vt 0.311201 0.099799
vt 0.327323 0.114687
vt 0.934643 0.425920
vt 0.809314 0.509462
vt 0.598239 0.184727
vt 0.720026 0.105303
vt 0.759777 0.330525
vt 0.679550 0.360438
vt 0.686160 0.349387
vt 0.746983 0.327628
vt 0.684296 0.112002
vt 0.617372 0.160666
vt 0.641762 0.145455
vt 0.654631 0.127905
vt 0.763727 0.340762
vt 0.683503 0.370679
vt 0.828601 0.544711
vt 0.955508 0.447234
vt 0.972583 0.463647
vt 0.847146 0.573393
vt 0.995050 0.486407
vt 0.873907 0.606161
g Cube
usemtl Default
f 13/1/13 5/2/5 1/3/1 9/4/9 
f 7/5/7 15/6/15 21/7/21 17/8/17 
f 5/9/5 6/10/6 8/11/8 7/12/7 17/13/17 18/14/18 20/15/20 19/16/19 3/17/3 4/18/4 2/19/2 1/20/1 
f 23/21/23 24/22/24 22/23/22 21/24/21 15/25/15 16/26/16 14/27/14 13/28/13 9/29/9 10/30/10 12/31/12 11/32/11 
f 19/33/19 23/34/23 11/35/11 3/36/3 
f 16/37/16 8/38/8 6/39/6 14/40/14 
f 4/41/4 12/42/12 10/43/10 2/44/2 
f 14/40/14 6/39/6 5/2/5 13/1/13 
f 8/38/8 16/37/16 15/45/15 7/46/7 
f 2/44/2 10/43/10 9/4/9 1/3/1 
f 12/42/12 4/41/4 3/36/3 11/35/11 
f 24/47/24 20/48/20 18/49/18 22/50/22 
f 22/50/22 18/49/18 17/51/17 21/52/21 
f 20/48/20 24/47/24 23/34/23 19/33/19 
